<?xml version="1.0" encoding="UTF-8"?>
<!DOCTYPE svg PUBLIC "-//W3C//DTD SVG 1.1//EN" "http://www.w3.org/Graphics/SVG/1.1/DTD/svg11.dtd">
<!-- Creator: CorelDRAW 2019 (64-Bit) -->
<svg xmlns="http://www.w3.org/2000/svg" xml:space="preserve" width="38px" height="26px" version="1.1" style="shape-rendering:geometricPrecision; text-rendering:geometricPrecision; image-rendering:optimizeQuality; fill-rule:evenodd; clip-rule:evenodd"
viewBox="0 0 38 26.6"
 xmlns:xlink="http://www.w3.org/1999/xlink"
 xmlns:xodm="http://www.corel.com/coreldraw/odm/2003">
 <defs>
  <style type="text/css">
   <![CDATA[
    .fil0 {fill:#F4E041}
    .fil2 {fill:white}
    .fil1 {fill:black;fill-opacity:0.870588}
   ]]>
  </style>
 </defs>
 <g id="Слой_x0020_1">
  <metadata id="CorelCorpID_0Corel-Layer"/>
  <g id="_1605307592064">
   <path class="fil0" d="M28.589 23.651c0.138,0.991 -0.237,1.937 -0.917,2.531 -0.126,0.112 -0.263,0.209 -0.408,0.293 -0.132,0.075 -0.27,0.14 -0.416,0.191 -0.33,0.117 -0.674,0.16 -1.013,0.139 -0.009,0 -0.018,0 -0.027,-0.002 -0.682,-0.049 -1.338,-0.358 -1.803,-0.853 -0.754,-0.801 -0.732,-1.797 -0.723,-2.005 0,-0.1 0.005,-0.198 0.016,-0.294l-8.193 0c0.011,0.096 0.016,0.194 0.016,0.294 0.009,0.208 0.031,1.204 -0.723,2.005 -0.465,0.495 -1.121,0.804 -1.803,0.853 -0.009,0.002 -0.018,0.002 -0.027,0.002 -0.338,0.021 -0.683,-0.022 -1.013,-0.139 -0.146,-0.051 -0.284,-0.116 -0.416,-0.191 -0.145,-0.084 -0.282,-0.181 -0.409,-0.292 -0.001,0 -0.001,-0.001 -0.001,-0.001 -0.678,-0.595 -1.053,-1.54 -0.915,-2.531l-2.952 0c0.02,-0.073 0.041,-0.147 0.06,-0.22 0.368,-1.351 0.735,-2.704 1.102,-4.055l0.241 -0.012 2.819 -0.125c0.128,-0.005 0.225,-0.111 0.219,-0.236 -0.005,-0.126 -0.11,-0.224 -0.239,-0.217l-2.674 0.118 -0.24 0.011c0.133,-0.493 0.267,-0.985 0.401,-1.477l0.233 0.02 2.263 0.187 0.02 0c0.118,0 0.219,-0.09 0.229,-0.208 0.01,-0.125 -0.083,-0.235 -0.21,-0.246l-2.181 -0.18 -0.233 -0.02c0.136,-0.499 0.271,-0.998 0.406,-1.496l0.216 0.083 2.148 0.822c0.027,0.01 0.055,0.016 0.083,0.016 0.092,0 0.179,-0.055 0.213,-0.145 0.046,-0.117 -0.012,-0.249 -0.131,-0.295l-2.192 -0.84 -0.216 -0.082c1.19,-4.38 2.381,-8.76 3.571,-13.14 0.859,2.619 1.718,5.238 2.576,7.855 0.606,-0.305 2.018,-0.929 3.847,-0.9l0.017 0c1.828,-0.029 3.241,0.595 3.847,0.9 0.859,-2.617 1.717,-5.236 2.576,-7.855 1.19,4.38 2.381,8.76 3.571,13.14l-0.215 0.082 -2.193 0.84c-0.118,0.046 -0.178,0.178 -0.133,0.295 0.037,0.09 0.124,0.145 0.216,0.145 0.027,0 0.055,-0.006 0.082,-0.016l2.148 -0.822 0.216 -0.083c0.135,0.498 0.271,0.997 0.406,1.496l-0.233 0.02 -2.181 0.18c-0.126,0.011 -0.221,0.121 -0.21,0.246 0.01,0.118 0.111,0.208 0.228,0.208l0.019 0 2.266 -0.187 0.233 -0.02c0.133,0.492 0.267,0.984 0.4,1.477l-0.24 -0.011 -2.674 -0.118c-0.13,-0.005 -0.234,0.091 -0.24,0.217 -0.006,0.125 0.093,0.231 0.219,0.236l2.82 0.125 0.241 0.012c0.368,1.351 0.735,2.704 1.102,4.055 0.019,0.073 0.04,0.147 0.059,0.22l-2.951 0z"/>
   <path class="fil1" d="M31.839 23.878l-0.06 -0.218 -0.062 -0.229 -1.099 -4.045 -0.239 -0.01 -0.241 -0.012 1.103 4.059 -2.915 0 0.035 0.259c0.109,0.78 -0.125,1.537 -0.594,2.083 -0.09,0.104 -0.189,0.201 -0.294,0.287 -0.032,0.027 -0.066,0.054 -0.099,0.078 -0.069,0.052 -0.14,0.099 -0.215,0.141 -0.122,0.071 -0.252,0.133 -0.389,0.18 -0.227,0.081 -0.463,0.124 -0.7,0.131 -0.079,0.002 -0.157,0 -0.235,-0.005 -0.075,-0.004 -0.151,-0.013 -0.227,-0.026 -0.537,-0.085 -1.05,-0.347 -1.435,-0.757 -0.641,-0.681 -0.676,-1.512 -0.661,-1.849 0,-0.099 0.004,-0.186 0.013,-0.268l0.03 -0.254 -8.708 0 0.03 0.254c0.009,0.082 0.014,0.169 0.014,0.277 0.015,0.328 -0.021,1.159 -0.662,1.84 -0.385,0.41 -0.898,0.672 -1.434,0.757 -0.076,0.013 -0.151,0.022 -0.227,0.026 -0.078,0.005 -0.156,0.007 -0.234,0.005 -0.239,-0.007 -0.475,-0.05 -0.703,-0.131 -0.135,-0.047 -0.264,-0.108 -0.386,-0.179l-0.001 0c-0.075,-0.042 -0.147,-0.09 -0.216,-0.142 -0.033,-0.024 -0.067,-0.051 -0.099,-0.078 -0.105,-0.086 -0.204,-0.183 -0.294,-0.287 -0.469,-0.546 -0.703,-1.303 -0.594,-2.083l0.036 -0.259 -2.915 0 1.103 -4.059 -0.241 0.012 -0.24 0.01 -1.099 4.045 -0.062 0.229 -0.06 0.218 2.997 0c-0.076,1.336 0.7,2.572 1.917,3.002 1.059,0.375 2.3,0.064 3.089,-0.775 0.758,-0.807 0.8,-1.787 0.785,-2.16 0,-0.023 -0.002,-0.045 -0.002,-0.067l7.704 0 0 0.057c-0.018,0.383 0.025,1.363 0.783,2.17 0.567,0.602 1.366,0.932 2.163,0.932 0.314,0 0.627,-0.052 0.926,-0.157 1.217,-0.43 1.992,-1.666 1.917,-3.002l2.997 0zm-23.288 -6.44l-0.234 -0.019 -0.408 1.507 0.241 -0.011 0.24 -0.011 0.394 -1.447 -0.233 -0.019zm17.103 -16.323l-0.24 0.729c-0.716,2.184 -1.433,4.369 -2.149,6.552l-0.345 1.054c-0.874,-0.407 -2.168,-0.836 -3.71,-0.808l-0.013 0c-1.547,-0.025 -2.841,0.401 -3.714,0.808l-0.346 -1.054c-0.716,-2.183 -1.432,-4.368 -2.149,-6.552l-0.24 -0.729 -3.765 13.856 0.216 0.083 0.216 0.082 3.376 -12.424c0.636,1.942 1.273,3.884 1.909,5.825l0.511 1.555 0.238 -0.12c0.822,-0.414 2.143,-0.905 3.744,-0.876l0.02 0c1.606,-0.027 2.918,0.462 3.74,0.876l0.24 0.12 0.509 -1.555c0.636,-1.941 1.273,-3.883 1.911,-5.825l3.376 12.424 0.215 -0.082 0.215 -0.083 -3.765 -13.856zm-16.791 14.297l-0.424 1.56 0.233 0.019 0.233 0.02 0.389 -1.433 -0.216 -0.083 -0.215 -0.083zm20.677 0.002l-0.215 0.081 -0.216 0.083 0.389 1.433 0.233 -0.02 0.232 -0.018 -0.423 -1.559zm0.545 2.005l-0.232 0.019 -0.233 0.019 0.393 1.447 0.24 0.011 0.24 0.011 -0.408 -1.507z"/>
   <path class="fil1" d="M21.02 16.02c-0.269,0 -0.487,-0.217 -0.487,-0.484l0 -2.928c0,-0.266 0.218,-0.483 0.487,-0.483 0.27,0 0.488,0.217 0.488,0.483l0 2.928c0,0.266 -0.218,0.484 -0.488,0.484z"/>
   <path class="fil1" d="M17.669 15.508c-0.268,0.029 -0.508,-0.164 -0.537,-0.43l-0.238 -2.209c-0.028,-0.265 0.166,-0.504 0.434,-0.532 0.268,-0.029 0.509,0.163 0.537,0.429l0.238 2.21c0.028,0.266 -0.166,0.504 -0.434,0.532z"/>
   <path class="fil1" d="M11.736 16.27c-0.034,0.091 -0.121,0.146 -0.213,0.146 -0.028,0 -0.056,-0.006 -0.083,-0.016l-2.148 -0.822 -0.216 -0.083 -0.215 -0.083 -3.121 -1.194c-0.12,-0.046 -0.178,-0.177 -0.133,-0.295 0.046,-0.116 0.18,-0.175 0.298,-0.129l3.076 1.177 0.216 0.083 0.216 0.082 2.193 0.84c0.118,0.046 0.176,0.178 0.13,0.294z"/>
   <path class="fil1" d="M11.293 17.437c-0.009,0.118 -0.11,0.208 -0.228,0.208l-0.02 0 -2.264 -0.188 -0.233 -0.019 -0.232 -0.02 -3.362 -0.278c-0.126,-0.01 -0.22,-0.12 -0.209,-0.246 0.011,-0.125 0.12,-0.218 0.249,-0.206l3.443 0.284 0.233 0.019 0.233 0.019 2.182 0.181c0.126,0.01 0.218,0.121 0.208,0.246z"/>
   <path class="fil1" d="M11.302 19.003c0.005,0.125 -0.092,0.231 -0.219,0.237l-2.82 0.124 -0.241 0.012 -0.24 0.01 -2.806 0.125 -0.01 0c-0.121,0 -0.224,-0.095 -0.228,-0.216 -0.006,-0.127 0.091,-0.233 0.218,-0.238l2.951 -0.131 0.241 -0.01 0.24 -0.011 2.674 -0.119c0.129,-0.007 0.234,0.091 0.24,0.217z"/>
   <path class="fil1" d="M32.659 14.218l-3.122 1.196 -0.214 0.081 -0.216 0.083 -2.148 0.822c-0.027,0.01 -0.055,0.016 -0.082,0.016 -0.092,0 -0.18,-0.055 -0.215,-0.146 -0.046,-0.116 0.014,-0.248 0.132,-0.294l2.193 -0.84 0.215 -0.082 0.215 -0.083 3.078 -1.177c0.116,-0.046 0.251,0.013 0.297,0.129 0.045,0.118 -0.014,0.249 -0.133,0.295z"/>
   <path class="fil1" d="M33.652 16.895c0.01,0.125 -0.084,0.235 -0.21,0.245l-3.361 0.279 -0.232 0.019 -0.233 0.02 -2.265 0.187 -0.019 0c-0.118,0 -0.218,-0.09 -0.228,-0.208 -0.011,-0.125 0.083,-0.235 0.209,-0.245l2.182 -0.181 0.232 -0.02 0.232 -0.018 3.445 -0.285c0.126,-0.013 0.238,0.082 0.248,0.207z"/>
   <path class="fil1" d="M33.66 19.294c-0.006,0.122 -0.107,0.217 -0.229,0.217l-0.011 0 -2.805 -0.125 -0.239 -0.01 -0.241 -0.012 -2.82 -0.125c-0.126,-0.005 -0.225,-0.111 -0.219,-0.236 0.005,-0.126 0.109,-0.222 0.24,-0.217l2.674 0.118 0.24 0.011 0.24 0.011 2.951 0.13c0.127,0.006 0.225,0.112 0.219,0.238z"/>
   <path class="fil2" d="M25.74 24.624c0.087,0.25 0.163,0.554 0.188,0.904 0.029,0.41 -0.023,0.766 -0.095,1.05l-0.093 -1.954z"/>
   <path class="fil1" d="M25.834 26.805c-0.018,0 -0.037,-0.002 -0.055,-0.007 -0.123,-0.03 -0.198,-0.154 -0.167,-0.275 0.08,-0.324 0.11,-0.654 0.087,-0.98 -0.02,-0.283 -0.079,-0.567 -0.176,-0.845 -0.041,-0.117 0.022,-0.247 0.143,-0.288 0.12,-0.041 0.25,0.021 0.291,0.141 0.11,0.315 0.177,0.638 0.2,0.961 0.026,0.375 -0.008,0.751 -0.1,1.121 -0.026,0.103 -0.12,0.172 -0.223,0.172z"/>
   <path class="fil2" d="M27.237 24.534c0.14,0.224 0.262,0.497 0.3,0.809 0.046,0.367 -0.036,0.686 -0.151,0.941l-0.149 -1.75z"/>
   <path class="fil1" d="M27.385 26.51c-0.03,0 -0.061,-0.007 -0.092,-0.019 -0.116,-0.051 -0.169,-0.185 -0.117,-0.3 0.121,-0.273 0.165,-0.549 0.132,-0.822 -0.03,-0.239 -0.119,-0.479 -0.268,-0.717 -0.066,-0.107 -0.033,-0.247 0.075,-0.313 0.108,-0.066 0.249,-0.032 0.315,0.074 0.184,0.293 0.295,0.597 0.333,0.901 0.044,0.355 -0.012,0.712 -0.167,1.061 -0.038,0.086 -0.122,0.135 -0.211,0.135z"/>
   <path class="fil2" d="M12.661 24.624c-0.087,0.25 -0.163,0.554 -0.187,0.904 -0.029,0.41 0.023,0.766 0.094,1.05l0.093 -1.954z"/>
   <path class="fil1" d="M12.566 26.805c-0.104,0 -0.196,-0.069 -0.222,-0.173 -0.092,-0.369 -0.127,-0.746 -0.1,-1.121 0.021,-0.323 0.089,-0.646 0.199,-0.961 0.041,-0.118 0.173,-0.182 0.292,-0.141 0.119,0.041 0.183,0.171 0.142,0.289 -0.096,0.277 -0.156,0.56 -0.175,0.844 -0.024,0.326 0.006,0.656 0.087,0.98 0.029,0.122 -0.045,0.245 -0.168,0.275 -0.018,0.006 -0.037,0.008 -0.055,0.008z"/>
   <path class="fil2" d="M11.165 24.534c-0.14,0.224 -0.262,0.497 -0.301,0.809 -0.046,0.367 0.037,0.686 0.151,0.941l0.15 -1.75z"/>
   <path class="fil1" d="M11.014 26.51c-0.088,0 -0.172,-0.051 -0.209,-0.135 -0.155,-0.348 -0.213,-0.705 -0.168,-1.061 0.038,-0.304 0.149,-0.606 0.332,-0.901 0.067,-0.106 0.208,-0.14 0.316,-0.074 0.108,0.066 0.141,0.206 0.075,0.313 -0.148,0.236 -0.238,0.478 -0.268,0.717 -0.033,0.273 0.011,0.549 0.132,0.822 0.052,0.115 -0.001,0.249 -0.117,0.3 -0.031,0.014 -0.062,0.019 -0.093,0.019z"/>
   <path class="fil1" d="M8.227 23.845l-8.086 0c-0.134,0 -0.244,-0.087 -0.244,-0.193 0,-0.107 0.11,-0.194 0.244,-0.194l8.086 0c0.135,0 0.244,0.087 0.244,0.194 0,0.106 -0.109,0.193 -0.244,0.193z"/>
   <path class="fil1" d="M37.668 23.886l-7.602 0c-0.127,0 -0.23,-0.103 -0.23,-0.228 0,-0.124 0.103,-0.227 0.23,-0.227l7.602 0c0.126,0 0.229,0.103 0.229,0.227 0,0.125 -0.102,0.228 -0.229,0.228z"/>
   <path class="fil1" d="M21.536 19.703c-0.165,0.426 -0.547,0.886 -1.033,0.955 -0.448,0.063 -0.862,-0.175 -1.159,-0.544 -0.028,0.078 -0.064,0.159 -0.11,0.24 -0.074,0.132 -0.475,0.784 -1.143,0.784l-0.018 0c-0.636,-0.012 -1.187,-0.586 -1.284,-1.337 -0.015,-0.125 0.074,-0.239 0.199,-0.253 0.125,-0.016 0.242,0.073 0.257,0.196 0.073,0.58 0.483,0.933 0.836,0.939l0.009 0c0.422,0 0.712,-0.494 0.744,-0.551 0.158,-0.282 0.155,-0.571 0.126,-0.761 -0.01,-0.035 -0.02,-0.07 -0.029,-0.105 -0.441,0.051 -0.822,-0.103 -0.892,-0.382 -0.079,-0.318 0.275,-0.68 0.792,-0.807 0.519,-0.127 1.003,0.027 1.083,0.345 0.066,0.263 -0.162,0.554 -0.534,0.72 0.011,0.042 0.022,0.092 0.031,0.146 0.186,0.612 0.661,0.97 1.028,0.92 0.285,-0.041 0.552,-0.367 0.668,-0.667 0.099,-0.255 0.085,-0.494 0.056,-0.65 -0.022,-0.124 0.061,-0.242 0.185,-0.265 0.126,-0.022 0.244,0.06 0.268,0.183 0.038,0.213 0.057,0.541 -0.08,0.894z"/>
  </g>
 </g>
</svg>
